<svg xmlns="http://www.w3.org/2000/svg" xmlns:xlink="http://www.w3.org/1999/xlink" width="215" zoomAndPan="magnify" viewBox="0 0 161.25 30.000001" height="40" preserveAspectRatio="xMidYMid meet" version="1.0"><defs><g/></defs><g fill="#141734" fill-opacity="1"><g transform="translate(8.373233, 23.324631)"><g><path d="M 9.109375 -2.328125 L 9.109375 0 L 0.9375 0 L 0.9375 -2.328125 L 2.953125 -3 L 2.953125 -15.71875 L 0.9375 -16.53125 L 0.9375 -18.75 L 9.109375 -18.875 L 9.109375 -16.53125 L 7.09375 -15.71875 L 7.09375 -3 Z M 9.109375 -2.328125 "/></g></g></g><g fill="#141734" fill-opacity="1"><g transform="translate(18.409775, 23.324631)"><g><path d="M 7.28125 -15.71875 L 7.28125 -2.84375 C 7.28125 -0.414062 6.828125 1.363281 5.921875 2.5 C 5.023438 3.632812 3.441406 4.203125 1.171875 4.203125 L -0.859375 4.015625 L -0.515625 1.34375 L 0.78125 1.34375 C 2.351562 1.34375 3.140625 0.484375 3.140625 -1.234375 L 3.140625 -15.71875 L 1.125 -16.53125 L 1.125 -18.75 L 9.296875 -18.875 L 9.296875 -16.53125 Z M 7.28125 -15.71875 "/></g></g></g><g fill="#2a7e75" fill-opacity="1"><g transform="translate(28.796867, 22.96514)"><g><path d="M 8.03125 0.265625 C 6.820312 0.265625 5.742188 0.109375 4.796875 -0.203125 C 3.847656 -0.515625 3.054688 -0.925781 2.421875 -1.4375 C 1.796875 -1.945312 1.320312 -2.503906 1 -3.109375 L 2.5625 -5.03125 L 2.875 -5.03125 C 3.4375 -4.15625 4.144531 -3.472656 5 -2.984375 C 5.851562 -2.503906 6.863281 -2.265625 8.03125 -2.265625 C 9.195312 -2.265625 10.070312 -2.507812 10.65625 -3 C 11.238281 -3.5 11.53125 -4.179688 11.53125 -5.046875 C 11.53125 -5.554688 11.429688 -5.988281 11.234375 -6.34375 C 11.046875 -6.695312 10.734375 -7 10.296875 -7.25 C 9.859375 -7.507812 9.265625 -7.726562 8.515625 -7.90625 L 6.28125 -8.4375 C 4.664062 -8.8125 3.46875 -9.425781 2.6875 -10.28125 C 1.914062 -11.132812 1.53125 -12.226562 1.53125 -13.5625 C 1.53125 -14.53125 1.773438 -15.382812 2.265625 -16.125 C 2.753906 -16.875 3.472656 -17.457031 4.421875 -17.875 C 5.367188 -18.289062 6.492188 -18.5 7.796875 -18.5 C 9.179688 -18.5 10.359375 -18.3125 11.328125 -17.9375 C 12.304688 -17.5625 13.109375 -16.988281 13.734375 -16.21875 L 12.328125 -14.28125 L 12.015625 -14.28125 C 11.492188 -14.875 10.882812 -15.3125 10.1875 -15.59375 C 9.5 -15.882812 8.703125 -16.03125 7.796875 -16.03125 C 6.660156 -16.03125 5.800781 -15.816406 5.21875 -15.390625 C 4.644531 -14.972656 4.359375 -14.394531 4.359375 -13.65625 C 4.359375 -12.957031 4.566406 -12.398438 4.984375 -11.984375 C 5.398438 -11.578125 6.113281 -11.257812 7.125 -11.03125 L 9.421875 -10.515625 C 11.191406 -10.117188 12.472656 -9.476562 13.265625 -8.59375 C 14.054688 -7.71875 14.453125 -6.585938 14.453125 -5.203125 C 14.453125 -4.117188 14.210938 -3.164062 13.734375 -2.34375 C 13.253906 -1.519531 12.535156 -0.878906 11.578125 -0.421875 C 10.617188 0.0351562 9.4375 0.265625 8.03125 0.265625 Z M 8.03125 0.265625 "/></g></g></g><g fill="#2a7e75" fill-opacity="1"><g transform="translate(43.428833, 22.96514)"><g><path d="M 9.40625 -2.734375 L 10.171875 -0.71875 C 9.828125 -0.40625 9.378906 -0.164062 8.828125 0 C 8.285156 0.175781 7.679688 0.265625 7.015625 0.265625 C 5.628906 0.265625 4.570312 -0.0976562 3.84375 -0.828125 C 3.125 -1.566406 2.765625 -2.660156 2.765625 -4.109375 L 2.765625 -11.5625 L 0.53125 -11.5625 L 0.53125 -13.765625 L 2.765625 -13.765625 L 2.765625 -16.5625 L 5.515625 -17.015625 L 5.515625 -13.765625 L 9.6875 -13.765625 L 9.6875 -11.5625 L 5.515625 -11.5625 L 5.515625 -4.34375 C 5.515625 -3.570312 5.671875 -3.015625 5.984375 -2.671875 C 6.304688 -2.335938 6.769531 -2.171875 7.375 -2.171875 C 8.039062 -2.171875 8.628906 -2.359375 9.140625 -2.734375 Z M 9.40625 -2.734375 "/></g></g></g><g fill="#2a7e75" fill-opacity="1"><g transform="translate(52.996608, 22.96514)"><g><path d="M 6.546875 0.265625 C 5.003906 0.265625 3.859375 -0.148438 3.109375 -0.984375 C 2.359375 -1.828125 1.984375 -3.035156 1.984375 -4.609375 L 1.984375 -13.765625 L 4.734375 -13.765625 L 4.734375 -4.859375 C 4.734375 -3.910156 4.945312 -3.207031 5.375 -2.75 C 5.800781 -2.300781 6.445312 -2.078125 7.3125 -2.078125 C 8.40625 -2.078125 9.265625 -2.4375 9.890625 -3.15625 C 10.523438 -3.882812 10.84375 -5.046875 10.84375 -6.640625 L 10.84375 -13.765625 L 13.578125 -13.765625 L 13.578125 0 L 10.96875 0 L 10.96875 -2.09375 L 10.703125 -2.15625 C 10.242188 -1.34375 9.691406 -0.734375 9.046875 -0.328125 C 8.398438 0.0664062 7.566406 0.265625 6.546875 0.265625 Z M 6.546875 0.265625 "/></g></g></g><g fill="#2a7e75" fill-opacity="1"><g transform="translate(67.753309, 22.96514)"><g><path d="M 6.96875 0.265625 C 5.875 0.265625 4.90625 0 4.0625 -0.53125 C 3.21875 -1.0625 2.554688 -1.859375 2.078125 -2.921875 C 1.609375 -3.984375 1.375 -5.300781 1.375 -6.875 C 1.375 -8.445312 1.617188 -9.765625 2.109375 -10.828125 C 2.609375 -11.898438 3.289062 -12.695312 4.15625 -13.21875 C 5.03125 -13.75 6.035156 -14.015625 7.171875 -14.015625 C 8.054688 -14.015625 8.835938 -13.851562 9.515625 -13.53125 C 10.203125 -13.21875 10.785156 -12.707031 11.265625 -12 L 11.53125 -12.0625 L 11.53125 -19.28125 L 14.265625 -19.28125 L 14.265625 0 L 11.53125 0 L 11.53125 -1.890625 L 11.265625 -1.953125 C 10.835938 -1.285156 10.265625 -0.75 9.546875 -0.34375 C 8.835938 0.0625 7.976562 0.265625 6.96875 0.265625 Z M 7.84375 -2.125 C 8.976562 -2.125 9.875 -2.515625 10.53125 -3.296875 C 11.195312 -4.085938 11.53125 -5.28125 11.53125 -6.875 C 11.53125 -8.488281 11.195312 -9.6875 10.53125 -10.46875 C 9.875 -11.257812 8.976562 -11.65625 7.84375 -11.65625 C 5.425781 -11.65625 4.21875 -10.0625 4.21875 -6.875 C 4.21875 -3.707031 5.425781 -2.125 7.84375 -2.125 Z M 7.84375 -2.125 "/></g></g></g><g fill="#2a7e75" fill-opacity="1"><g transform="translate(83.19604, 22.96514)"><g><path d="M 3.5625 -15.921875 C 3.039062 -15.921875 2.613281 -16.082031 2.28125 -16.40625 C 1.945312 -16.726562 1.78125 -17.144531 1.78125 -17.65625 C 1.78125 -18.15625 1.945312 -18.566406 2.28125 -18.890625 C 2.613281 -19.210938 3.039062 -19.375 3.5625 -19.375 C 4.09375 -19.375 4.523438 -19.210938 4.859375 -18.890625 C 5.191406 -18.566406 5.359375 -18.15625 5.359375 -17.65625 C 5.359375 -17.144531 5.191406 -16.726562 4.859375 -16.40625 C 4.523438 -16.082031 4.09375 -15.921875 3.5625 -15.921875 Z M 2.203125 0 L 2.203125 -13.765625 L 4.9375 -13.765625 L 4.9375 0 Z M 2.203125 0 "/></g></g></g><g fill="#2a7e75" fill-opacity="1"><g transform="translate(89.296215, 22.96514)"><g><path d="M 7.953125 0.265625 C 6.628906 0.265625 5.472656 -0.0078125 4.484375 -0.5625 C 3.492188 -1.113281 2.726562 -1.925781 2.1875 -3 C 1.644531 -4.070312 1.375 -5.363281 1.375 -6.875 C 1.375 -8.394531 1.644531 -9.6875 2.1875 -10.75 C 2.726562 -11.820312 3.492188 -12.632812 4.484375 -13.1875 C 5.472656 -13.738281 6.628906 -14.015625 7.953125 -14.015625 C 9.265625 -14.015625 10.414062 -13.738281 11.40625 -13.1875 C 12.394531 -12.632812 13.160156 -11.820312 13.703125 -10.75 C 14.253906 -9.6875 14.53125 -8.394531 14.53125 -6.875 C 14.53125 -5.363281 14.253906 -4.070312 13.703125 -3 C 13.160156 -1.925781 12.394531 -1.113281 11.40625 -0.5625 C 10.414062 -0.0078125 9.265625 0.265625 7.953125 0.265625 Z M 7.953125 -2.125 C 10.429688 -2.125 11.671875 -3.707031 11.671875 -6.875 C 11.671875 -10.0625 10.429688 -11.65625 7.953125 -11.65625 C 6.742188 -11.65625 5.816406 -11.265625 5.171875 -10.484375 C 4.535156 -9.703125 4.21875 -8.5 4.21875 -6.875 C 4.21875 -3.707031 5.460938 -2.125 7.953125 -2.125 Z M 7.953125 -2.125 "/></g></g></g></svg>